<svg data-cut="svg" class="svgicon ulepqoaqtpp46vw8ux7" preserveAspectRatio="xMidYMid meet" xmlns="http://www.w3.org/2000/svg" viewBox="0 0 30 30" style="border-radius: 50%;"><rect x="0" y="0" width="30" height="30" style="fill: none" rx="15" ry="15"></rect><g transform="scale(0.6) translate(10, 10)" transform-origin="0 0"><style target-class1="svgicon" target-class2="ulepqoaqtpp46vw8ux7"> .svgicon.ulepqoaqtpp46vw8ux7 path, .svgicon.ulepqoaqtpp46vw8ux7 polygon, .svgicon.ulepqoaqtpp46vw8ux7 circle, .svgicon.ulepqoaqtpp46vw8ux7 ellipse, .svgicon.ulepqoaqtpp46vw8ux7 rect { fill: rgb(255, 255, 255) } .svgicon.ulepqoaqtpp46vw8ux7 defs &gt; path { fill: none }.svgicon.ulepqoaqtpp46vw8ux7 [fill="none"] { fill: none }</style> <g><rect x="17" y="8" width="3" height="13"></rect><path d="M20,7V5c0-0.8-0.7-1.5-1.5-1.5S17,4.2,17,5v2H20z"></path><path d="M25.5,0h-14c-0.1,0-0.1,0-0.2,0c-0.1,0-0.1,0.1-0.2,0.1l-7,7c0,0-0.1,0.1-0.1,0.2c0,0.1,0,0.1,0,0.2v22 C4,29.8,4.2,30,4.5,30h21c0.3,0,0.5-0.2,0.5-0.5v-29C26,0.2,25.8,0,25.5,0z M11,7H5.7L11,1.7V7z M21,21.5c0,0.1,0,0.1,0,0.2 c0,0,0,0,0,0l0,0c0,0,0,0,0,0l-2,5c-0.1,0.2-0.3,0.3-0.5,0.3s-0.4-0.1-0.5-0.3l-2-5c0,0,0,0,0,0l0,0c0,0,0,0,0,0c0-0.1,0-0.1,0-0.2 V5c0-1.3,1.2-2.5,2.5-2.5S21,3.7,21,5V21.5z"></path><polygon points="18.5,25.2 19.8,22 17.2,22 "></polygon></g> 
    </g></svg>